<mxfile host="app.diagrams.net" modified="2023-08-04T02:41:42.084Z" agent="Mozilla/5.0 (Macintosh; Intel Mac OS X 10_15_7) AppleWebKit/537.36 (KHTML, like Gecko) Chrome/115.0.0.0 Safari/537.36" version="21.6.3" etag="2fUN3QHgiRhcc-ulNK0x" type="github">
  <diagram name="第 1 页" id="e0zolzPZdaSJ-suGNlM9">
    <mxGraphModel>
      <root>
        <mxCell id="0" />
        <mxCell id="1" parent="0" />
      </root>
    </mxGraphModel>
  </diagram>
</mxfile>
